<svg width="86" height="80" viewBox="0 0 86 80" fill="none" xmlns="http://www.w3.org/2000/svg">
<g clip-path="url(#clip0_6038_91)">
<path d="M59.9799 30H82.1916C84.29 30 85.9912 31.7013 85.9912 33.8V54.034C85.9912 61.7472 79.7391 68 72.0267 68H71.9606C64.2483 68.0011 57.9953 61.7492 57.9941 54.036C57.9941 54.0353 57.9941 54.0347 57.9941 54.034V31.986C57.9942 30.8892 58.8832 30 59.9799 30Z" fill="#5059C9"/>
<path d="M74.9922 26C79.9622 26 83.9912 21.9706 83.9912 17C83.9912 12.0294 79.9622 8 74.9922 8C70.0222 8 65.9932 12.0294 65.9932 17C65.9932 21.9706 70.0222 26 74.9922 26Z" fill="#5059C9"/>
<path d="M46.9947 26C54.1737 26 59.9933 20.1797 59.9933 13C59.9933 5.8203 54.1737 0 46.9947 0C39.8158 0 33.9961 5.8203 33.9961 13C33.9961 20.1797 39.8158 26 46.9947 26Z" fill="#7B83EB"/>
<path d="M64.3271 30H27.663C25.5896 30.0513 23.9493 31.7723 23.9974 33.846V56.924C23.7079 69.3685 33.5523 79.6955 45.9951 80C58.4379 79.6955 68.2823 69.3685 67.9928 56.924V33.846C68.0408 31.7723 66.4006 30.0513 64.3271 30Z" fill="#7B83EB"/>
<path opacity="0.1" d="M47.9946 30V62.34C47.9846 63.823 47.0861 65.1553 45.7148 65.72C45.2783 65.9047 44.809 65.9999 44.335 66H25.757C25.497 65.34 25.257 64.68 25.057 64C24.357 61.7051 23.9998 59.3194 23.9971 56.92V33.84C23.9491 31.7696 25.5866 30.0513 27.6567 30H47.9946Z" fill="black"/>
<path opacity="0.2" d="M45.9948 30V64.34C45.9947 64.8141 45.8995 65.2834 45.7148 65.72C45.1502 67.0914 43.8181 67.9901 42.3352 68H26.6969C26.3569 67.34 26.0369 66.68 25.757 66C25.477 65.32 25.257 64.68 25.057 64C24.357 61.7051 23.9998 59.3194 23.9971 56.92V33.84C23.9491 31.7696 25.5866 30.0513 27.6567 30H45.9948Z" fill="black"/>
<path opacity="0.2" d="M45.9948 30V60.34C45.9795 62.3551 44.35 63.9848 42.3352 64H25.057C24.357 61.7051 23.9998 59.3194 23.9971 56.92V33.84C23.9491 31.7696 25.5866 30.0513 27.6567 30H45.9948Z" fill="black"/>
<path opacity="0.2" d="M43.995 30V60.34C43.9797 62.3551 42.3502 63.9848 40.3354 64H25.057C24.357 61.7051 23.9998 59.3194 23.9971 56.92V33.84C23.9491 31.7696 25.5866 30.0513 27.6567 30H43.995Z" fill="black"/>
<path opacity="0.1" d="M47.995 19.66V25.96C47.655 25.98 47.3351 26 46.9951 26C46.6551 26 46.3352 25.98 45.9952 25.96C45.3202 25.9152 44.6507 25.8081 43.9954 25.64C39.9458 24.6809 36.6002 21.8405 34.9964 18C34.7204 17.355 34.5062 16.6854 34.3564 16H44.3354C46.3534 16.0076 47.9873 17.6418 47.995 19.66Z" fill="black"/>
<path opacity="0.2" d="M45.9949 21.66V25.96C45.3199 25.9152 44.6504 25.8081 43.9951 25.64C39.9455 24.6809 36.5999 21.8405 34.9961 18H42.3353C44.3532 18.0076 45.9872 19.6418 45.9949 21.66Z" fill="black"/>
<path opacity="0.2" d="M45.9949 21.66V25.96C45.3199 25.9152 44.6504 25.8081 43.9951 25.64C39.9455 24.6809 36.5999 21.8405 34.9961 18H42.3353C44.3532 18.0076 45.9872 19.6418 45.9949 21.66Z" fill="black"/>
<path opacity="0.2" d="M43.9951 21.66V25.64C39.9455 24.6809 36.5999 21.8405 34.9961 18H40.3355C42.3535 18.0077 43.9875 19.6418 43.9951 21.66Z" fill="black"/>
<path d="M3.66559 18H40.3296C42.3541 18 43.9952 19.6413 43.9952 21.666V58.334C43.9952 60.3587 42.3541 62 40.3296 62H3.66559C1.64112 62 0 60.3586 0 58.334V21.666C0 19.6413 1.64116 18 3.66559 18Z" fill="url(#paint0_linear_6038_91)"/>
<path d="M31.6445 31.956H24.3153V51.916H19.6458V31.956H12.3506V28.084H31.6445V31.956Z" fill="white"/>
</g>
<defs>
<linearGradient id="paint0_linear_6038_91" x1="7.64287" y1="15.1355" x2="36.357" y2="64.8619" gradientUnits="userSpaceOnUse">
<stop stop-color="#5A62C3"/>
<stop offset="0.5" stop-color="#4D55BD"/>
<stop offset="1" stop-color="#3940AB"/>
</linearGradient>
<clipPath id="clip0_6038_91">
<rect width="85.9908" height="80" fill="white"/>
</clipPath>
</defs>
</svg>
