<svg width="106" height="80" viewBox="0 0 106 80" fill="none" xmlns="http://www.w3.org/2000/svg">
<path d="M89.4146 6.69988C82.4796 3.52485 75.1583 1.27238 67.6379 0C66.6088 1.83967 65.6777 3.73244 64.8484 5.6704C56.8377 4.46328 48.6914 4.46328 40.6807 5.6704C39.851 3.73264 38.9198 1.83989 37.8912 0C30.3659 1.28312 23.0399 3.54094 16.0979 6.71648C2.31623 27.1067 -1.41976 46.9904 0.448239 66.5919C8.51912 72.5551 17.5527 77.0901 27.1564 80C29.3189 77.0916 31.2324 74.0061 32.8766 70.7763C29.7536 69.6098 26.7394 68.1708 23.8687 66.4757C24.6242 65.9278 25.3631 65.3632 26.0771 64.8153C34.43 68.7434 43.5466 70.7801 52.777 70.7801C62.0074 70.7801 71.1241 68.7434 79.4769 64.8153C80.1992 65.4047 80.9381 65.9693 81.6853 66.4757C78.8091 68.1735 75.7893 69.6154 72.6608 70.7846C74.303 74.0129 76.2166 77.0958 78.381 80C87.9929 77.1018 97.0334 72.5689 105.106 66.6002C107.298 43.8688 101.361 24.1677 89.4146 6.69988ZM35.2428 54.5372C30.0373 54.5372 25.7367 49.8132 25.7367 44.0017C25.7367 38.1901 29.8878 33.4247 35.2262 33.4247C40.5645 33.4247 44.8318 38.1901 44.7405 44.0017C44.6492 49.8132 40.5479 54.5372 35.2428 54.5372ZM70.3113 54.5372C65.0975 54.5372 60.8135 49.8132 60.8135 44.0017C60.8135 38.1901 64.9646 33.4247 70.3113 33.4247C75.6579 33.4247 79.892 38.1901 79.8007 44.0017C79.7093 49.8132 75.6164 54.5372 70.3113 54.5372Z" fill="#5865F2"/>
</svg>
