<svg width="208" height="80" viewBox="0 0 208 80" fill="none" xmlns="http://www.w3.org/2000/svg">
<path d="M81.0461 33.165H86.9471V63.1931C86.9471 71.1109 83.4363 76.5637 75.2944 76.5637C72.9041 76.6384 70.5138 76.1903 68.1982 75.4433V69.6917C70.1404 70.4386 72.2319 70.8121 74.3234 70.8121C79.328 70.8121 81.0461 67.8242 81.0461 63.4918V33.165Z" fill="#20385B"/>
<path d="M97.7783 30.8496C99.9445 30.8496 101.737 32.6423 101.737 34.8085C101.737 36.9747 99.9445 38.7674 97.7783 38.7674C95.6121 38.7674 93.8194 36.9747 93.8194 34.8085C93.67 32.7917 95.2387 30.999 97.2555 30.8496C97.4049 30.8496 97.6289 30.8496 97.7783 30.8496ZM94.8652 43.4733H100.542V76.3398H94.8652V43.4733Z" fill="#20385B"/>
<path d="M114.584 76.3397H109.057V43.4732H114.584V49.2995C116.526 45.4153 119.738 42.6515 126.237 43.025V48.5525C118.991 47.8056 114.584 49.9718 114.584 56.9932V76.3397Z" fill="#20385B"/>
<path d="M152.68 70.4385C150.588 74.7709 146.629 77.0118 141.55 77.0118C132.81 77.0118 128.403 69.6168 128.403 59.9063C128.403 50.6439 133.035 42.8008 142.222 42.8008C147.003 42.8008 150.738 44.967 152.68 49.2247V43.4731H158.357V76.3395H152.68V70.4385ZM143.119 71.7084C148.198 71.7084 152.754 68.4964 152.754 61.1761V58.5618C152.754 51.2415 148.571 48.0295 143.791 48.0295C137.442 48.0295 134.155 52.2125 134.155 59.8316C134.08 67.8241 137.292 71.7084 143.119 71.7084Z" fill="#20385B"/>
<path d="M51.3909 26.4424H25.5459C25.5459 32.8663 30.7747 38.095 37.1986 38.095H41.9791V42.6515C41.9791 49.0754 47.2079 54.3042 53.6318 54.3042V28.6833C53.6318 27.4134 52.5861 26.4424 51.3909 26.4424Z" fill="#0082FF"/>
<path d="M38.6175 39.2905H12.7725C12.7725 45.7144 18.0012 50.9432 24.4251 50.9432H29.2057V55.5744C29.2057 61.9983 34.4345 67.227 40.8584 67.227V41.6061C40.8584 40.3363 39.8126 39.2905 38.6175 39.2905Z" fill="url(#paint0_linear_6038_19)"/>
<path d="M25.845 52.1382H0C0 58.5621 5.22876 63.7908 11.6527 63.7908H16.3585V68.3473C16.3585 74.7712 21.5873 80 28.0112 80V54.3044C28.0859 53.1839 27.0402 52.1382 25.845 52.1382Z" fill="url(#paint1_linear_6038_19)"/>
<path d="M147.75 11.8768C147.75 8.88889 145.808 7.54435 142.222 6.64799C139.981 6.05042 139.458 5.60224 139.458 4.85528C139.458 3.95892 140.28 3.51074 141.774 3.51074C143.567 3.58544 145.359 4.03361 147.003 4.85528V1.12045C145.434 0.373483 143.641 0 141.923 0C137.965 0 135.798 1.86742 135.798 4.92997C135.798 7.84314 137.74 9.33707 141.027 10.084C143.343 10.6069 144.015 10.9804 144.015 11.9514C144.015 12.6984 143.492 13.296 141.774 13.296C139.683 13.2213 137.591 12.6237 135.724 11.578V15.5369C137.591 16.4332 139.608 16.9561 141.699 16.9561C145.733 16.9561 147.75 14.9393 147.75 11.8768Z" fill="#0052CC"/>
<path d="M192.866 0.298819V16.7321H196.377V4.18304L197.871 7.46969L202.801 16.6574H207.208V0.224121H203.697V10.831L202.353 7.76847L198.394 0.224121H192.866V0.298819Z" fill="#0052CC"/>
<path d="M170.682 0.298828H166.872V16.7321H170.682V0.298828Z" fill="#0052CC"/>
<path d="M106.144 0.298828V16.7321H113.987L115.182 13.1466H109.953V0.298828H106.144Z" fill="#0052CC"/>
<path d="M90.6064 0.298828V3.88426H94.8642V16.7321H98.6737V3.88426H103.23V0.298828H90.6064Z" fill="#0052CC"/>
<path d="M85.0795 0.298828H80.0749L74.3232 16.7321H78.7303L79.552 13.9683C80.5231 14.2671 81.5688 14.4165 82.6146 14.4165C83.6603 14.4165 84.7061 14.2671 85.6771 13.9683L86.4988 16.7321H90.9059L85.0795 0.298828ZM82.5399 10.9804C81.7929 10.9804 81.1206 10.9057 80.4484 10.6816L82.5399 3.51078L84.6314 10.6816C83.9591 10.9057 83.2868 10.9804 82.5399 10.9804Z" fill="#0052CC"/>
<path d="M127.432 0.298828H122.427L116.676 16.7321H121.083L121.905 13.9683C122.876 14.2671 123.921 14.4165 124.967 14.4165C126.013 14.4165 127.059 14.2671 128.03 13.9683L128.851 16.7321H133.258L127.432 0.298828ZM124.967 10.9804C124.22 10.9804 123.548 10.9057 122.876 10.6816L124.967 3.51078L127.059 10.6816C126.386 10.9057 125.639 10.9804 124.967 10.9804Z" fill="#0052CC"/>
<path d="M184.426 0.298828H179.422L173.67 16.7321H178.077L178.899 13.9683C179.87 14.2671 180.915 14.4165 181.961 14.4165C183.007 14.4165 184.053 14.2671 185.024 13.9683L185.845 16.7321H190.253L184.426 0.298828ZM181.887 10.9804C181.14 10.9804 180.467 10.9057 179.795 10.6816L181.887 3.51078L183.978 10.6816C183.306 10.9057 182.634 10.9804 181.887 10.9804Z" fill="#0052CC"/>
<path d="M162.913 11.8768C162.913 8.88889 160.971 7.54435 157.385 6.64799C155.144 6.05042 154.622 5.60224 154.622 4.85528C154.622 3.95892 155.443 3.51074 156.862 3.51074C158.655 3.58544 160.448 4.03361 162.091 4.85528V1.12045C160.448 0.373483 158.73 0 156.937 0C152.978 0 150.812 1.86742 150.812 4.92997C150.812 7.84314 152.754 9.33707 156.041 10.084C158.356 10.6069 159.029 10.9804 159.029 11.9514C159.029 12.6984 158.506 13.296 156.788 13.296C154.696 13.2213 152.605 12.6237 150.737 11.578V15.5369C152.605 16.4332 154.622 16.9561 156.713 16.9561C160.971 16.9561 162.913 14.9393 162.913 11.8768Z" fill="#0052CC"/>
<defs>
<linearGradient id="paint0_linear_6038_19" x1="40.2851" y1="39.3449" x2="29.2973" y2="50.6764" gradientUnits="userSpaceOnUse">
<stop offset="0.18" stop-color="#0050D3"/>
<stop offset="1" stop-color="#0082FF"/>
</linearGradient>
<linearGradient id="paint1_linear_6038_19" x1="28.2334" y1="52.2856" x2="15.5275" y2="64.6479" gradientUnits="userSpaceOnUse">
<stop offset="0.18" stop-color="#0050D3"/>
<stop offset="1" stop-color="#0082FF"/>
</linearGradient>
</defs>
</svg>
